<svg xmlns="http://www.w3.org/2000/svg" viewBox="0 0 480 620"><defs><linearGradient id="s" x2="0" y2="1"><stop stop-color="#9bb8cc"/><stop offset="1" stop-color="#e5e6db"/></linearGradient></defs><path fill="url(#s)" d="M0 0h480v620H0z"/><path d="M0 333q78-71 161-30t150-25q79-39 169 46v158H0z" fill="#96a992"/><path d="M0 367q92-35 156 9t173-38q78-47 151 22v137H0z" fill="#688c77"/><path d="M0 416h480v204H0z" fill="#82a9a9"/><path d="M0 502q67-45 124-11l75 129H0z" fill="#3e715f"/><path d="M319 418l92-21 69 41v182H338q-64-97-19-202z" fill="#4b7764"/><path d="M118 436q114-44 247-15" stroke="#dfd7bb" stroke-width="12" fill="none"/><path d="M128 445q83-36 226-17" stroke="#586e5c" stroke-width="7" fill="none"/><path d="M242 371h56v49h-56z" fill="#cfbd98"/><path d="M232 372l39-27 37 27z" fill="#475b4e"/><path d="M249 350h42l-20-19z" fill="#425949"/><path d="M267 383h9v37h-9z" fill="#687359"/><g stroke="#c6d5c5" opacity=".7"><path d="M148 486h104m-91 26h131M87 556h128m45 27h54"/></g><g fill="#315d46"><circle cx="58" cy="403" r="27"/><circle cx="25" cy="417" r="35"/><circle cx="442" cy="381" r="33"/></g></svg>